<?xml version="1.0" standalone="no"?>
<!DOCTYPE svg PUBLIC "-//W3C//DTD SVG 20010904//EN"
 "http://www.w3.org/TR/2001/REC-SVG-20010904/DTD/svg10.dtd">
<svg version="1.0" xmlns="http://www.w3.org/2000/svg"
 width="130.000000pt" height="130.000000pt" viewBox="0 0 130.000000 130.000000"
 preserveAspectRatio="xMidYMid meet">

<g transform="translate(0.000000,130.000000) scale(0.100000,-0.100000)"
fill="#000000" stroke="none">
<path d="M525 1260 c-275 -59 -477 -293 -492 -570 -6 -105 4 -175 37 -263 18
-47 25 -57 38 -51 10 4 36 11 59 17 l41 10 4 116 c2 64 -1 118 -5 120 -5 2
-24 17 -43 33 -131 115 12 313 168 232 62 -32 89 -138 49 -198 -22 -33 -68
-66 -93 -66 -16 0 -18 -10 -18 -79 0 -43 -3 -98 -6 -123 -6 -40 -4 -46 20 -62
27 -17 28 -17 69 20 149 133 159 144 146 160 -7 9 -13 38 -13 65 0 53 19 87
67 123 35 26 114 27 151 2 90 -58 87 -204 -5 -251 -31 -16 -103 -17 -139 -2
-10 4 -47 -24 -113 -86 -89 -84 -97 -94 -84 -111 11 -15 31 -19 124 -23 110
-6 110 -6 116 18 3 14 22 40 41 58 29 28 44 35 88 38 91 7 152 -48 152 -138 0
-110 -113 -177 -212 -125 -18 9 -42 32 -53 51 -24 40 -40 45 -149 45 l-85 0
-18 -57 c-20 -64 -22 -61 63 -94 85 -32 156 -42 260 -36 252 14 467 179 552
426 33 96 33 286 0 382 -64 186 -204 328 -390 396 -52 20 -91 26 -177 29 -60
2 -128 -1 -150 -6z"/>
<path d="M189 851 c-62 -62 -20 -171 66 -171 47 0 71 13 90 50 24 46 19 87
-14 121 -41 41 -101 41 -142 0z"/>
<path d="M580 707 c-32 -16 -60 -74 -53 -109 7 -35 46 -74 81 -81 58 -11 122
39 122 95 0 82 -78 131 -150 95z"/>
<path d="M691 336 c-57 -32 -68 -111 -22 -157 78 -78 209 6 167 106 -25 59
-89 82 -145 51z"/>
<path d="M140 330 c-20 -13 -1 -46 69 -116 78 -79 88 -83 106 -41 19 46 5 104
-35 140 -24 21 -40 27 -78 27 -26 0 -54 -4 -62 -10z"/>
</g>
</svg>
